<svg width="320" height="320" viewBox="0 0 320 320" fill="none" xmlns="http://www.w3.org/2000/svg"><path opacity="0.2" fill-rule="evenodd" clip-rule="evenodd" d="M319.996 159.628c0 3.732-.128 7.433-.38 11.1V320H.38V170.71a161.6 161.6 0 0 1 0-22.163V.378h148.505a162.737 162.737 0 0 1 22.226 0H319.618V148.527c.25 3.668.38 7.37.38 11.1zm-1.88-78.124v53.572a158.298 158.298 0 0 0-18.56-53.572h18.56zm0 67.077a156.928 156.928 0 0 0-20.283-67.076h-57.367v77.746h77.65v-10.67zm0-68.954h-19.634c-13.956-23.995-33.997-44.028-58.015-57.999V1.88h77.65v77.746zm-21.372 0a159.105 159.105 0 0 0-56.277-56.26v56.26h56.277zM238.587 1.879v18.67a159.175 159.175 0 0 0-53.963-18.67h53.963zm0 20.396C218.435 10.775 195.51 3.56 171.06 1.879h-10.123v77.746h77.65v-57.35zM81.408 1.879h53.965a159.17 159.17 0 0 0-53.965 18.672V1.879zm67.53 0c-24.452 1.68-47.378 8.895-67.53 20.396v57.35h77.65V1.879h-10.12zm-69.41-.001v19.748C55.511 35.598 35.47 55.632 21.515 79.625H1.879V1.88h77.648zm0 21.487a159.103 159.103 0 0 0-56.275 56.258h56.275V23.367zM1.88 81.504h18.56a158.305 158.305 0 0 0-18.56 53.58v-53.58zm0 79.625v9.527a156.918 156.918 0 0 0 20.93 68.218H79.53V161.13H1.879zm0 77.745v-54.703a158.322 158.322 0 0 0 19.197 54.703H1.88zm0 1.88h20.293a160.62 160.62 0 0 0 57.356 56.874v20.87H1.879v-77.746zM81.407 318.5v-19.795a159.235 159.235 0 0 0 62.91 19.795H81.41zm0-21.52c22.91 13.076 49.404 20.61 77.65 20.774v-77h-77.65v56.226zm157.18 21.52h-62.91a159.25 159.25 0 0 0 62.91-19.794V318.5zm-77.65-.746c28.245-.163 54.74-7.698 77.65-20.773v-56.226h-77.65v77zm79.528.746v-20.87a160.61 160.61 0 0 0 57.357-56.876h20.293V318.5h-77.65zm0-22.61a159.12 159.12 0 0 0 55.61-55.136h-55.61v55.137zm0-57.015h56.72a156.913 156.913 0 0 0 20.93-68.2v-9.546h-77.65v77.745zm77.65-54.695a158.324 158.324 0 0 1-19.197 54.695h19.196V184.18zM23.92 240.754A159.105 159.105 0 0 0 79.53 295.89v-55.136h-55.61zm-1.756-159.25A156.91 156.91 0 0 0 1.879 148.6v10.65h77.649V81.504H22.163zm59.244 0h77.65v5.119H99.08v72.627H81.409V81.504zm17.673 79.625H81.409v77.745h77.65V161.13h-34.03v72.058H99.08v-72.06zm25.947-1.88h34.03v-46.696h-34.03v46.696zm35.91-72.627H224.3v72.627h14.287V81.504h-77.65v5.119zm63.363 74.506h14.287v77.745h-77.65V161.13h37.416v72.058H224.3v-72.06zm-25.947-1.88v-46.696h-37.415v46.696h37.415z" fill="white"/></svg>